<svg width="375" height="309" viewBox="0 0 375 309" fill="none" xmlns="http://www.w3.org/2000/svg">
<path d="M422 28L422 157.247C422 183.777 400.493 205.284 373.963 205.284V205.284C347.432 205.284 325.925 183.777 325.925 157.246L325.925 124.237C325.925 99.7122 306.043 79.8305 281.518 79.8305V79.8305C256.993 79.8305 237.111 99.7122 237.111 124.238L237.111 262.99C237.111 286.744 217.855 306 194.101 306V306C170.347 306 151.091 286.744 151.091 262.99L151.091 103.653C151.091 79.4366 131.46 59.8051 107.243 59.8051V59.8051C83.0262 59.8051 63.3947 79.4366 63.3947 103.653L63.3947 176.343C63.3946 218.316 29.3683 252.343 -12.6053 252.343L-31 252.343" stroke="#86007D" stroke-width="5" stroke-linecap="round"/>
<path d="M417 23L417 152.247C417 178.777 395.493 200.284 368.963 200.284V200.284C342.432 200.284 320.925 178.777 320.925 152.246L320.925 119.237C320.925 94.7122 301.043 74.8305 276.518 74.8305V74.8305C251.993 74.8305 232.111 94.7122 232.111 119.238L232.111 257.99C232.111 281.744 212.855 301 189.101 301V301C165.347 301 146.091 281.744 146.091 257.99L146.091 98.6532C146.091 74.4366 126.46 54.8051 102.243 54.8051V54.8051C78.0262 54.8051 58.3947 74.4366 58.3947 98.6532L58.3947 171.343C58.3946 213.316 24.3683 247.343 -17.6053 247.343L-36 247.343" stroke="#0000F9" stroke-width="5" stroke-linecap="round"/>
<path d="M412 18L412 147.247C412 173.777 390.493 195.284 363.963 195.284V195.284C337.432 195.284 315.925 173.777 315.925 147.246L315.925 114.237C315.925 89.7122 296.043 69.8305 271.518 69.8305V69.8305C246.993 69.8305 227.111 89.7122 227.111 114.238L227.111 252.99C227.111 276.744 207.855 296 184.101 296V296C160.347 296 141.091 276.744 141.091 252.99L141.091 93.6532C141.091 69.4366 121.46 49.8051 97.2429 49.8051V49.8051C73.0262 49.8051 53.3947 69.4366 53.3947 93.6532L53.3947 166.343C53.3946 208.316 19.3683 242.343 -22.6053 242.343L-41 242.343" stroke="#008018" stroke-width="5" stroke-linecap="round"/>
<path d="M407 13L407 142.247C407 168.777 385.493 190.284 358.963 190.284V190.284C332.432 190.284 310.925 168.777 310.925 142.246L310.925 109.237C310.925 84.7122 291.043 64.8305 266.518 64.8305V64.8305C241.993 64.8305 222.111 84.7122 222.111 109.238L222.111 247.99C222.111 271.744 202.855 291 179.101 291V291C155.347 291 136.091 271.744 136.091 247.99L136.091 88.6532C136.091 64.4366 116.46 44.8051 92.2429 44.8051V44.8051C68.0262 44.8051 48.3947 64.4366 48.3947 88.6532L48.3947 161.343C48.3946 203.316 14.3683 237.343 -27.6053 237.343L-46 237.343" stroke="#FFFF41" stroke-width="5" stroke-linecap="round"/>
<path d="M402 8.00001L402 137.247C402 163.777 380.493 185.284 353.963 185.284V185.284C327.432 185.284 305.925 163.777 305.925 137.246L305.925 104.237C305.925 79.7122 286.043 59.8305 261.518 59.8305V59.8305C236.993 59.8305 217.111 79.7122 217.111 104.238L217.111 242.99C217.111 266.744 197.855 286 174.101 286V286C150.347 286 131.091 266.744 131.091 242.99L131.091 83.6532C131.091 59.4366 111.46 39.8051 87.2429 39.8051V39.8051C63.0262 39.8051 43.3947 59.4366 43.3947 83.6532L43.3947 156.343C43.3946 198.316 9.36829 232.343 -32.6053 232.343L-51 232.343" stroke="#FFA52C" stroke-width="5" stroke-linecap="round"/>
<path d="M397 3.00001L397 132.247C397 158.777 375.493 180.284 348.963 180.284V180.284C322.432 180.284 300.925 158.777 300.925 132.246L300.925 99.2375C300.925 74.7122 281.043 54.8305 256.518 54.8305V54.8305C231.993 54.8305 212.111 74.7122 212.111 99.2375L212.111 237.99C212.111 261.744 192.855 281 169.101 281V281C145.347 281 126.091 261.744 126.091 237.99L126.091 78.6532C126.091 54.4366 106.46 34.8051 82.2429 34.8051V34.8051C58.0262 34.8051 38.3947 54.4366 38.3947 78.6532L38.3947 151.343C38.3946 193.316 4.36829 227.343 -37.6053 227.343L-56 227.343" stroke="#FF0018" stroke-width="5" stroke-linecap="round"/>
</svg>
