<svg width="340" height="851" viewBox="0 0 340 851" fill="none" xmlns="http://www.w3.org/2000/svg">
<path d="M289.5 -64V520.5C289.5 540.382 273.382 556.5 253.5 556.5H39C19.1178 556.5 3 572.618 3 592.5V983" stroke="#86007D" stroke-width="5" stroke-linecap="round"/>
<path d="M308.5 -48.5V536C308.5 555.882 292.382 572 272.5 572H58C38.1178 572 22 588.118 22 608V998.5" stroke="#008018" stroke-width="5" stroke-linecap="round"/>
<path d="M327.5 -32.5V552C327.5 571.882 311.382 588 291.5 588H77C57.1178 588 41 604.118 41 624V1014.5" stroke="#FFA52C" stroke-width="5" stroke-linecap="round"/>
<path d="M299 -56.5V528C299 547.882 282.882 564 263 564H48.5C28.6178 564 12.5 580.118 12.5 600V990.5" stroke="#0000F9" stroke-width="5" stroke-linecap="round"/>
<path d="M318 -40.5V544C318 563.882 301.882 580 282 580H67.5C47.6178 580 31.5 596.118 31.5 616V1006.5" stroke="#FFFF41" stroke-width="5" stroke-linecap="round"/>
<path d="M337 -24.5V560C337 579.882 320.882 596 301 596H86.5C66.6178 596 50.5 612.118 50.5 632V1022.5" stroke="#FF0018" stroke-width="5" stroke-linecap="round"/>
</svg>
