<svg width="375" height="93" viewBox="0 0 375 93" fill="none" xmlns="http://www.w3.org/2000/svg">
<path d="M-45 90H3.30154C12.1381 90 19.3016 82.8366 19.3016 74V44C19.3016 35.1634 26.465 28 35.3016 28H315.55C324.386 28 331.55 35.1634 331.55 44V74C331.55 82.8366 338.713 90 347.55 90H419" stroke="#86007D" stroke-width="5" stroke-linecap="round"/>
<path d="M-39 85H9.30154C18.1381 85 25.3016 77.8366 25.3016 69V39C25.3016 30.1634 32.465 23 41.3016 23H321.55C330.386 23 337.55 30.1634 337.55 39V69C337.55 77.8366 344.713 85 353.55 85H425" stroke="#0000F9" stroke-width="5" stroke-linecap="round"/>
<path d="M-34 80H14.3015C23.1381 80 30.3016 72.8366 30.3016 64V34C30.3016 25.1634 37.465 18 46.3016 18H326.55C335.386 18 342.55 25.1634 342.55 34V64C342.55 72.8366 349.713 80 358.55 80H430" stroke="#008018" stroke-width="5" stroke-linecap="round"/>
<path d="M-28 75H20.3015C29.1381 75 36.3016 67.8366 36.3016 59V29C36.3016 20.1634 43.465 13 52.3016 13H332.55C341.386 13 348.55 20.1634 348.55 29V59C348.55 67.8366 355.713 75 364.55 75H436" stroke="#FFFF41" stroke-width="5" stroke-linecap="round"/>
<path d="M-23 70H25.3015C34.1381 70 41.3016 62.8366 41.3016 54V24C41.3016 15.1634 48.465 8 57.3016 8H337.55C346.386 8 353.55 15.1634 353.55 24V54C353.55 62.8366 360.713 70 369.55 70H441" stroke="#FFA52C" stroke-width="5" stroke-linecap="round"/>
<path d="M-17 65H31.3015C40.1381 65 47.3016 57.8366 47.3016 49V19C47.3016 10.1634 54.465 3 63.3016 3H343.55C352.386 3 359.55 10.1634 359.55 19V49C359.55 57.8366 366.713 65 375.55 65H447" stroke="#FF0018" stroke-width="5" stroke-linecap="round"/>
</svg>
