<svg width="235" height="228" viewBox="0 0 235 228" fill="none" xmlns="http://www.w3.org/2000/svg">
<path d="M207 5.5C208.381 5.5 209.5 4.38071 209.5 3C209.5 1.61929 208.381 0.5 207 0.5V5.5ZM207 0.5H76.25V5.5H207V0.5ZM41.75 35H31V40H41.75V35ZM0.5 65.5V78H5.5V65.5H0.5ZM43.5 121H88.25V116H43.5V121ZM154.75 187.5H197V182.5H154.75V187.5ZM119 151.75C119 171.494 135.006 187.5 154.75 187.5V182.5C137.767 182.5 124 168.733 124 151.75H119ZM88.25 121C105.233 121 119 134.767 119 151.75H124C124 132.006 107.994 116 88.25 116V121ZM0.5 78C0.5 101.748 19.7518 121 43.5 121V116C22.5132 116 5.5 98.9868 5.5 78H0.5ZM31 35C14.1553 35 0.5 48.6553 0.5 65.5H5.5C5.5 51.4167 16.9167 40 31 40V35ZM56.5 20.25C56.5 28.3962 49.8962 35 41.75 35V40C52.6576 40 61.5 31.1576 61.5 20.25H56.5ZM76.25 0.5C65.3424 0.5 56.5 9.34238 56.5 20.25H61.5C61.5 12.1038 68.1038 5.5 76.25 5.5V0.5Z" fill="#86007D"/>
<path d="M212 13.5C213.381 13.5 214.5 12.3807 214.5 11C214.5 9.61929 213.381 8.5 212 8.5V13.5ZM212 8.5H81.25V13.5H212V8.5ZM46.75 43H36V48H46.75V43ZM5.5 73.5V86H10.5V73.5H5.5ZM48.5 129H93.25V124H48.5V129ZM159.75 195.5H202V190.5H159.75V195.5ZM124 159.75C124 179.494 140.006 195.5 159.75 195.5V190.5C142.767 190.5 129 176.733 129 159.75H124ZM93.25 129C110.233 129 124 142.767 124 159.75H129C129 140.006 112.994 124 93.25 124V129ZM5.5 86C5.5 109.748 24.7518 129 48.5 129V124C27.5132 124 10.5 106.987 10.5 86H5.5ZM36 43C19.1553 43 5.5 56.6553 5.5 73.5H10.5C10.5 59.4167 21.9167 48 36 48V43ZM61.5 28.25C61.5 36.3962 54.8962 43 46.75 43V48C57.6576 48 66.5 39.1576 66.5 28.25H61.5ZM81.25 8.5C70.3424 8.5 61.5 17.3424 61.5 28.25H66.5C66.5 20.1038 73.1038 13.5 81.25 13.5V8.5Z" fill="#0000F9"/>
<path d="M217 21.5C218.381 21.5 219.5 20.3807 219.5 19C219.5 17.6193 218.381 16.5 217 16.5V21.5ZM217 16.5H86.25V21.5H217V16.5ZM51.75 51H41V56H51.75V51ZM10.5 81.5V94H15.5V81.5H10.5ZM53.5 137H98.25V132H53.5V137ZM164.75 203.5H207V198.5H164.75V203.5ZM129 167.75C129 187.494 145.006 203.5 164.75 203.5V198.5C147.767 198.5 134 184.733 134 167.75H129ZM98.25 137C115.233 137 129 150.767 129 167.75H134C134 148.006 117.994 132 98.25 132V137ZM10.5 94C10.5 117.748 29.7518 137 53.5 137V132C32.5132 132 15.5 114.987 15.5 94H10.5ZM41 51C24.1553 51 10.5 64.6553 10.5 81.5H15.5C15.5 67.4167 26.9167 56 41 56V51ZM66.5 36.25C66.5 44.3962 59.8962 51 51.75 51V56C62.6576 56 71.5 47.1576 71.5 36.25H66.5ZM86.25 16.5C75.3424 16.5 66.5 25.3424 66.5 36.25H71.5C71.5 28.1038 78.1038 21.5 86.25 21.5V16.5Z" fill="#008018"/>
<path d="M222 29.5C223.381 29.5 224.5 28.3807 224.5 27C224.5 25.6193 223.381 24.5 222 24.5V29.5ZM222 24.5H91.25V29.5H222V24.5ZM56.75 59H46V64H56.75V59ZM15.5 89.5V102H20.5V89.5H15.5ZM58.5 145H103.25V140H58.5V145ZM169.75 211.5H212V206.5H169.75V211.5ZM134 175.75C134 195.494 150.006 211.5 169.75 211.5V206.5C152.767 206.5 139 192.733 139 175.75H134ZM103.25 145C120.233 145 134 158.767 134 175.75H139C139 156.006 122.994 140 103.25 140V145ZM15.5 102C15.5 125.748 34.7518 145 58.5 145V140C37.5132 140 20.5 122.987 20.5 102H15.5ZM46 59C29.1553 59 15.5 72.6553 15.5 89.5H20.5C20.5 75.4167 31.9167 64 46 64V59ZM71.5 44.25C71.5 52.3962 64.8962 59 56.75 59V64C67.6576 64 76.5 55.1576 76.5 44.25H71.5ZM91.25 24.5C80.3424 24.5 71.5 33.3424 71.5 44.25H76.5C76.5 36.1038 83.1038 29.5 91.25 29.5V24.5Z" fill="#FFFF41"/>
<path d="M227 37.5C228.381 37.5 229.5 36.3807 229.5 35C229.5 33.6193 228.381 32.5 227 32.5V37.5ZM227 32.5H96.25V37.5H227V32.5ZM61.75 67H51V72H61.75V67ZM20.5 97.5V110H25.5V97.5H20.5ZM63.5 153H108.25V148H63.5V153ZM174.75 219.5H217V214.5H174.75V219.5ZM139 183.75C139 203.494 155.006 219.5 174.75 219.5V214.5C157.767 214.5 144 200.733 144 183.75H139ZM108.25 153C125.233 153 139 166.767 139 183.75H144C144 164.006 127.994 148 108.25 148V153ZM20.5 110C20.5 133.748 39.7518 153 63.5 153V148C42.5132 148 25.5 130.987 25.5 110H20.5ZM51 67C34.1553 67 20.5 80.6553 20.5 97.5H25.5C25.5 83.4167 36.9167 72 51 72V67ZM76.5 52.25C76.5 60.3962 69.8962 67 61.75 67V72C72.6576 72 81.5 63.1576 81.5 52.25H76.5ZM96.25 32.5C85.3424 32.5 76.5 41.3424 76.5 52.25H81.5C81.5 44.1038 88.1038 37.5 96.25 37.5V32.5Z" fill="#FFA52C"/>
<path d="M232 45.5C233.381 45.5 234.5 44.3807 234.5 43C234.5 41.6193 233.381 40.5 232 40.5V45.5ZM232 40.5H101.25V45.5H232V40.5ZM66.75 75H56V80H66.75V75ZM25.5 105.5V118H30.5V105.5H25.5ZM68.5 161H113.25V156H68.5V161ZM179.75 227.5H222V222.5H179.75V227.5ZM144 191.75C144 211.494 160.006 227.5 179.75 227.5V222.5C162.767 222.5 149 208.733 149 191.75H144ZM113.25 161C130.233 161 144 174.767 144 191.75H149C149 172.006 132.994 156 113.25 156V161ZM25.5 118C25.5 141.748 44.7518 161 68.5 161V156C47.5132 156 30.5 138.987 30.5 118H25.5ZM56 75C39.1553 75 25.5 88.6553 25.5 105.5H30.5C30.5 91.4167 41.9167 80 56 80V75ZM81.5 60.25C81.5 68.3962 74.8962 75 66.75 75V80C77.6576 80 86.5 71.1576 86.5 60.25H81.5ZM101.25 40.5C90.3424 40.5 81.5 49.3424 81.5 60.25H86.5C86.5 52.1038 93.1038 45.5 101.25 45.5V40.5Z" fill="#FF0018"/>
</svg>
