<svg width="158" height="1394" viewBox="0 0 158 1394" fill="none" xmlns="http://www.w3.org/2000/svg">
<path d="M4 1V634C4 651.673 18.3269 666 36 666H44.5C62.1731 666 76.5 680.327 76.5 698V1393.5" stroke="#542291" stroke-width="8"/>
<path d="M19.5 0.5V615C19.5 632.673 33.8269 647 51.5 647H60C77.6731 647 92 661.327 92 679V1393.5" stroke="#051F90" stroke-width="8"/>
<path d="M35 0V596C35 613.673 49.3269 628 67 628H75.5C93.1731 628 107.5 642.327 107.5 660V1393" stroke="#28F72D" stroke-width="8"/>
<path d="M50.5 0V577C50.5 594.673 64.8269 609 82.5 609H91C108.673 609 123 623.327 123 641V1393" stroke="#FEFA37" stroke-width="8"/>
<path d="M66 0L66 558C66 575.673 80.3269 590 98 590H106.5C124.173 590 138.5 604.327 138.5 622V1392.5" stroke="#FD9526" stroke-width="8"/>
<path d="M81.5 0V539C81.5 556.673 95.8269 571 113.5 571H122C139.673 571 154 585.327 154 603V1392" stroke="#FB281D" stroke-width="8"/>
</svg>
