<svg width="375" height="230" viewBox="0 0 375 230" fill="none" xmlns="http://www.w3.org/2000/svg">
<path d="M-39.5 3H62.25C91.9353 3 116 27.0647 116 56.75V56.75C116 86.4353 140.065 110.5 169.75 110.5H220C245.957 110.5 267 131.543 267 157.5V157.5C267 183.457 288.043 204.5 314 204.5H399" stroke="#FF0018" stroke-width="5" stroke-linecap="round"/>
<path d="M-51 7.5H50.75C80.4353 7.5 104.5 31.5647 104.5 61.25V61.25C104.5 90.9353 128.565 115 158.25 115H208.5C234.457 115 255.5 136.043 255.5 162V162C255.5 187.957 276.543 209 302.5 209H399" stroke="#FFA52C" stroke-width="5" stroke-linecap="round"/>
<path d="M-62.5 12H39.25C68.9353 12 93 36.0647 93 65.75V65.75C93 95.4353 117.065 119.5 146.75 119.5H197C222.957 119.5 244 140.543 244 166.5V166.5C244 192.457 265.043 213.5 291 213.5H399" stroke="#FFFF41" stroke-width="5" stroke-linecap="round"/>
<path d="M-74 16.5H27.75C57.4353 16.5 81.5 40.5647 81.5 70.25V70.25C81.5 99.9353 105.565 124 135.25 124H185.5C211.457 124 232.5 145.043 232.5 171V171C232.5 196.957 253.543 218 279.5 218H399" stroke="#008018" stroke-width="5" stroke-linecap="round"/>
<path d="M-85.5 21H16.25C45.9353 21 70 45.0647 70 74.75V74.75C70 104.435 94.0647 128.5 123.75 128.5H174C199.957 128.5 221 149.543 221 175.5V175.5C221 201.457 242.043 222.5 268 222.5H399" stroke="#0000F9" stroke-width="5" stroke-linecap="round"/>
<path d="M-97 25.5H4.75C34.4353 25.5 58.5 49.5647 58.5 79.25V79.25C58.5 108.935 82.5647 133 112.25 133H162.5C188.457 133 209.5 154.043 209.5 180V180C209.5 205.957 230.543 227 256.5 227H399" stroke="#86007D" stroke-width="5" stroke-linecap="round"/>
</svg>
