<svg width="375" height="319" viewBox="0 0 375 319" fill="none" xmlns="http://www.w3.org/2000/svg">
<path d="M525 3H337.86C291.03 3 253.067 40.963 253.067 87.7927V134.007C253.067 155.313 270.339 172.585 291.645 172.585H301.638C317.425 172.585 330.223 159.787 330.223 144V144C330.223 128.213 317.425 115.415 301.638 115.415H180.461C133.631 115.415 95.6681 153.378 95.6681 200.207V248.994C95.6681 268.879 111.789 285 131.674 285H138.935C154.811 285 167.681 272.13 167.681 256.254V256.254C167.681 240.378 154.811 227.508 138.935 227.508H-131" stroke="#86007D" stroke-width="5" stroke-linecap="round"/>
<path d="M521 10H334.16C287.165 10 249.067 48.0976 249.067 95.0934V141.609C249.067 162.915 266.339 180.187 287.645 180.187H297.536C313.38 180.187 326.223 167.343 326.223 151.5V151.5C326.223 135.657 313.38 122.813 297.536 122.813H176.761C129.766 122.813 91.6681 160.911 91.6681 207.907V256.994C91.6681 276.88 107.789 293 127.674 293H134.833C150.765 293 163.681 280.084 163.681 264.152V264.152C163.681 248.22 150.765 235.304 134.833 235.304H-135" stroke="#0000F9" stroke-width="5" stroke-linecap="round"/>
<path d="M517 16H330.16C283.165 16 245.067 54.0976 245.067 101.093V147.609C245.067 168.915 262.339 186.187 283.645 186.187H293.536C309.38 186.187 322.223 173.343 322.223 157.5V157.5C322.223 141.657 309.38 128.813 293.536 128.813H172.761C125.766 128.813 87.6681 166.911 87.6681 213.907V262.994C87.6681 282.88 103.789 299 123.674 299H130.833C146.765 299 159.681 286.084 159.681 270.152V270.152C159.681 254.22 146.765 241.304 130.833 241.304H-139" stroke="#008018" stroke-width="5" stroke-linecap="round"/>
<path d="M514 23H327.16C280.165 23 242.067 61.0976 242.067 108.093V154.609C242.067 175.915 259.339 193.187 280.645 193.187H290.536C306.38 193.187 319.223 180.343 319.223 164.5V164.5C319.223 148.657 306.38 135.813 290.536 135.813H169.761C122.766 135.813 84.6681 173.911 84.6681 220.907V269.994C84.6681 289.88 100.789 306 120.674 306H127.833C143.765 306 156.681 293.084 156.681 277.152V277.152C156.681 261.22 143.765 248.304 127.833 248.304H-142" stroke="#FFFF41" stroke-width="5" stroke-linecap="round"/>
<path d="M510 30H323.16C276.165 30 238.067 68.0976 238.067 115.093V161.609C238.067 182.915 255.339 200.187 276.645 200.187H286.536C302.38 200.187 315.223 187.343 315.223 171.5V171.5C315.223 155.657 302.38 142.813 286.536 142.813H165.761C118.766 142.813 80.6681 180.911 80.6681 227.907V276.994C80.6681 296.88 96.7886 313 116.674 313H123.833C139.765 313 152.681 300.084 152.681 284.152V284.152C152.681 268.22 139.765 255.304 123.833 255.304H-146" stroke="#FFA52C" stroke-width="5" stroke-linecap="round"/>
<path d="M506 36H319.16C272.165 36 234.067 74.0976 234.067 121.093V167.609C234.067 188.915 251.339 206.187 272.645 206.187H282.536C298.38 206.187 311.223 193.343 311.223 177.5V177.5C311.223 161.657 298.38 148.813 282.536 148.813H161.761C114.766 148.813 76.6681 186.911 76.6681 233.907V282.994C76.6681 302.88 92.7886 319 112.674 319H119.833C135.765 319 148.681 306.084 148.681 290.152V290.152C148.681 274.22 135.765 261.304 119.833 261.304H-150" stroke="#FF0018" stroke-width="5" stroke-linecap="round"/>
</svg>
