<svg width="355" height="883" viewBox="0 0 355 883" fill="none" xmlns="http://www.w3.org/2000/svg">
<path d="M-38 3H251.5C293.474 3 327.5 37.0264 327.5 79V184C327.5 225.974 293.474 260 251.5 260H169.5C127.526 260 93.5 294.026 93.5 336V421.5C93.5 463.474 127.526 497.5 169.5 497.5H251.5C293.474 497.5 327.5 531.526 327.5 573.5V676.5C327.5 718.474 293.474 752.5 251.5 752.5H169.5C127.526 752.5 93.5 786.526 93.5 828.5V885.5" stroke="#86007D" stroke-width="5" stroke-linecap="round"/>
<path d="M-33 8H256.5C298.474 8 332.5 42.0264 332.5 84V189C332.5 230.974 298.474 265 256.5 265H174.5C132.526 265 98.5 299.026 98.5 341V426.5C98.5 468.474 132.526 502.5 174.5 502.5H256.5C298.474 502.5 332.5 536.526 332.5 578.5V681.5C332.5 723.474 298.474 757.5 256.5 757.5H174.5C132.526 757.5 98.5 791.526 98.5 833.5V890.5" stroke="#0000F9" stroke-width="5" stroke-linecap="round"/>
<path d="M-28 13H261.5C303.474 13 337.5 47.0264 337.5 89V194C337.5 235.974 303.474 270 261.5 270H179.5C137.526 270 103.5 304.026 103.5 346V431.5C103.5 473.474 137.526 507.5 179.5 507.5H261.5C303.474 507.5 337.5 541.526 337.5 583.5V686.5C337.5 728.474 303.474 762.5 261.5 762.5H179.5C137.526 762.5 103.5 796.526 103.5 838.5V895.5" stroke="#008018" stroke-width="5" stroke-linecap="round"/>
<path d="M-23 18H266.5C308.474 18 342.5 52.0264 342.5 94V199C342.5 240.974 308.474 275 266.5 275H184.5C142.526 275 108.5 309.026 108.5 351V436.5C108.5 478.474 142.526 512.5 184.5 512.5H266.5C308.474 512.5 342.5 546.526 342.5 588.5V691.5C342.5 733.474 308.474 767.5 266.5 767.5H184.5C142.526 767.5 108.5 801.526 108.5 843.5V900.5" stroke="#FFFF41" stroke-width="5" stroke-linecap="round"/>
<path d="M-18 23H271.5C313.474 23 347.5 57.0264 347.5 99V204C347.5 245.974 313.474 280 271.5 280H189.5C147.526 280 113.5 314.026 113.5 356V441.5C113.5 483.474 147.526 517.5 189.5 517.5H271.5C313.474 517.5 347.5 551.526 347.5 593.5V696.5C347.5 738.474 313.474 772.5 271.5 772.5H189.5C147.526 772.5 113.5 806.526 113.5 848.5V905.5" stroke="#FFA52C" stroke-width="5" stroke-linecap="round"/>
<path d="M-13 28H276.5C318.474 28 352.5 62.0264 352.5 104V209C352.5 250.974 318.474 285 276.5 285H194.5C152.526 285 118.5 319.026 118.5 361V446.5C118.5 488.474 152.526 522.5 194.5 522.5H276.5C318.474 522.5 352.5 556.526 352.5 598.5V701.5C352.5 743.474 318.474 777.5 276.5 777.5H194.5C152.526 777.5 118.5 811.526 118.5 853.5V910.5" stroke="#FF0018" stroke-width="5" stroke-linecap="round"/>
</svg>
