<svg width="639" height="209" viewBox="0 0 639 209" fill="none" xmlns="http://www.w3.org/2000/svg">
<path d="M28 3H453C469.016 3 482 15.9837 482 32V84C482 100.016 469.016 113 453 113H227C210.984 113 198 125.984 198 142V152C198 168.016 210.984 181 227 181H636" stroke="#FF0018" stroke-width="5" stroke-linecap="round"/>
<path d="M23 8H448C464.016 8 477 20.9837 477 37V89C477 105.016 464.016 118 448 118H222C205.984 118 193 130.984 193 147V157C193 173.016 205.984 186 222 186H631" stroke="#FFA52C" stroke-width="5" stroke-linecap="round"/>
<path d="M18 13H443C459.016 13 472 25.9837 472 42V94C472 110.016 459.016 123 443 123H217C200.984 123 188 135.984 188 152V162C188 178.016 200.984 191 217 191H626" stroke="#FFFF41" stroke-width="5" stroke-linecap="round"/>
<path d="M13 18H438C454.016 18 467 30.9837 467 47V99C467 115.016 454.016 128 438 128H212C195.984 128 183 140.984 183 157V167C183 183.016 195.984 196 212 196H621" stroke="#008018" stroke-width="5" stroke-linecap="round"/>
<path d="M8 23H433C449.016 23 462 35.9837 462 52V104C462 120.016 449.016 133 433 133H207C190.984 133 178 145.984 178 162V172C178 188.016 190.984 201 207 201H616" stroke="#0000F9" stroke-width="5" stroke-linecap="round"/>
<path d="M3 28H428C444.016 28 457 40.9837 457 57V109C457 125.016 444.016 138 428 138H202C185.984 138 173 150.984 173 167V177C173 193.016 185.984 206 202 206H611" stroke="#86007D" stroke-width="5" stroke-linecap="round"/>
</svg>
