<svg width="375" height="448" viewBox="0 0 375 448" fill="none" xmlns="http://www.w3.org/2000/svg">
<path d="M515 445.5H329C291.168 445.5 260.5 414.832 260.5 377V377C260.5 339.168 229.832 308.5 192 308.5H109C67.0264 308.5 33 274.474 33 232.5V101.5C33 59.5264 -1.02636 25.5 -43 25.5H-191" stroke="#FF0018" stroke-width="5" stroke-linecap="round"/>
<path d="M519.5 441H333.5C295.668 441 265 410.332 265 372.5V372.5C265 334.668 234.332 304 196.5 304H113.5C71.5264 304 37.5 269.974 37.5 228V97C37.5 55.0264 3.47364 21 -38.5 21H-186.5" stroke="#FFA52C" stroke-width="5" stroke-linecap="round"/>
<path d="M524 436.5H338C300.168 436.5 269.5 405.832 269.5 368V368C269.5 330.168 238.832 299.5 201 299.5H118C76.0264 299.5 42 265.474 42 223.5V92.5C42 50.5264 7.97364 16.5 -34 16.5H-182" stroke="#FFFF41" stroke-width="5" stroke-linecap="round"/>
<path d="M528.5 432H342.5C304.668 432 274 401.332 274 363.5V363.5C274 325.668 243.332 295 205.5 295H122.5C80.5264 295 46.5 260.974 46.5 219V88C46.5 46.0264 12.4736 12 -29.5 12H-177.5" stroke="#008018" stroke-width="5" stroke-linecap="round"/>
<path d="M533 427.5H347C309.168 427.5 278.5 396.832 278.5 359V359C278.5 321.168 247.832 290.5 210 290.5H127C85.0264 290.5 51 256.474 51 214.5V83.5C51 41.5264 16.9736 7.5 -25 7.5H-173" stroke="#0000F9" stroke-width="5" stroke-linecap="round"/>
<path d="M537.5 423H351.5C313.668 423 283 392.332 283 354.5V354.5C283 316.668 252.332 286 214.5 286H131.5C89.5264 286 55.5 251.974 55.5 210V79C55.5 37.0264 21.4736 3 -20.5 3H-168.5" stroke="#86007D" stroke-width="5" stroke-linecap="round"/>
</svg>
