<svg width="820" height="247" viewBox="0 0 820 247" fill="none" xmlns="http://www.w3.org/2000/svg">
<path d="M25.5 3H342.75C383.481 3 416.5 36.019 416.5 76.75V98.75C416.5 127.331 393.331 150.5 364.75 150.5H347.5C328.446 150.5 313 165.946 313 185V185C313 204.054 328.446 219.5 347.5 219.5H817" stroke="#FF0018" stroke-width="5" stroke-linecap="round"/>
<path d="M21 8H338.25C378.981 8 412 41.019 412 81.75V103.75C412 132.331 388.831 155.5 360.25 155.5H343C323.946 155.5 308.5 170.946 308.5 190V190C308.5 209.054 323.946 224.5 343 224.5H812.5" stroke="#FFA52C" stroke-width="5" stroke-linecap="round"/>
<path d="M16.5 13H333.75C374.481 13 407.5 46.019 407.5 86.75V108.75C407.5 137.331 384.331 160.5 355.75 160.5H338.5C319.446 160.5 304 175.946 304 195V195C304 214.054 319.446 229.5 338.5 229.5H808" stroke="#FFFF41" stroke-width="5" stroke-linecap="round"/>
<path d="M12 18H329.25C369.981 18 403 51.019 403 91.75V113.75C403 142.331 379.831 165.5 351.25 165.5H334C314.946 165.5 299.5 180.946 299.5 200V200C299.5 219.054 314.946 234.5 334 234.5H803.5" stroke="#008018" stroke-width="5" stroke-linecap="round"/>
<path d="M7.5 23H324.75C365.481 23 398.5 56.019 398.5 96.75V118.75C398.5 147.331 375.331 170.5 346.75 170.5H329.5C310.446 170.5 295 185.946 295 205V205C295 224.054 310.446 239.5 329.5 239.5H799" stroke="#0000F9" stroke-width="5" stroke-linecap="round"/>
<path d="M3 28H320.25C360.981 28 394 61.019 394 101.75V123.75C394 152.331 370.831 175.5 342.25 175.5H325C305.946 175.5 290.5 190.946 290.5 210V210C290.5 229.054 305.946 244.5 325 244.5H794.5" stroke="#86007D" stroke-width="5" stroke-linecap="round"/>
</svg>
