<svg width="301" height="292" viewBox="0 0 301 292" fill="none" xmlns="http://www.w3.org/2000/svg">
<path d="M-14 28.8123H268.5C285.069 28.8123 298.5 42.2437 298.5 58.8123V120.646C298.5 137.215 285.069 150.646 268.5 150.646H107C90.4315 150.646 77 164.078 77 180.646V259C77 275.569 90.4315 289 107 289H285.5" stroke="#86007D" stroke-width="5" stroke-linecap="round"/>
<path d="M-19 23.6498H263.5C280.069 23.6498 293.5 37.0813 293.5 53.6498V115.484C293.5 132.052 280.069 145.484 263.5 145.484H102C85.4315 145.484 72 158.915 72 175.484V253.838C72 270.406 85.4315 283.838 102 283.838H280.5" stroke="#0000F9" stroke-width="5" stroke-linecap="round"/>
<path d="M-24 18.4874H258.5C275.069 18.4874 288.5 31.9188 288.5 48.4874V110.321C288.5 126.89 275.069 140.321 258.5 140.321H97C80.4315 140.321 67 153.753 67 170.321V248.675C67 265.244 80.4315 278.675 97 278.675H275.5" stroke="#008018" stroke-width="5" stroke-linecap="round"/>
<path d="M-29 13.3249H253.5C270.069 13.3249 283.5 26.7563 283.5 43.3249V105.159C283.5 121.727 270.069 135.159 253.5 135.159H92C75.4315 135.159 62 148.59 62 165.159V243.513C62 260.081 75.4315 273.513 92 273.513H270.5" stroke="#FFFF41" stroke-width="5" stroke-linecap="round"/>
<path d="M-34 8.16248H248.5C265.069 8.16248 278.5 21.5939 278.5 38.1625V99.9964C278.5 116.565 265.069 129.996 248.5 129.996H87C70.4315 129.996 57 143.428 57 159.996V238.35C57 254.919 70.4315 268.35 87 268.35H265.5" stroke="#FFA52C" stroke-width="5" stroke-linecap="round"/>
<path d="M-39 3H243.5C260.069 3 273.5 16.4315 273.5 33V94.8339C273.5 111.402 260.069 124.834 243.5 124.834H82C65.4315 124.834 52 138.265 52 154.834V233.188C52 249.756 65.4315 263.188 82 263.188H260.5" stroke="#FF0018" stroke-width="5" stroke-linecap="round"/>
</svg>
