<svg width="734" height="448" viewBox="0 0 734 448" fill="none" xmlns="http://www.w3.org/2000/svg">
<path d="M708.5 445.5H522.5C484.668 445.5 454 414.832 454 377V377C454 339.168 423.332 308.5 385.5 308.5H302.5C260.526 308.5 226.5 274.474 226.5 232.5V101.5C226.5 59.5264 192.474 25.5 150.5 25.5H2.5" stroke="#FF0018" stroke-width="5" stroke-linecap="round"/>
<path d="M713 441H527C489.168 441 458.5 410.332 458.5 372.5V372.5C458.5 334.668 427.832 304 390 304H307C265.026 304 231 269.974 231 228V97C231 55.0264 196.974 21 155 21H7" stroke="#FFA52C" stroke-width="5" stroke-linecap="round"/>
<path d="M717.5 436.5H531.5C493.668 436.5 463 405.832 463 368V368C463 330.168 432.332 299.5 394.5 299.5H311.5C269.526 299.5 235.5 265.474 235.5 223.5V92.5C235.5 50.5264 201.474 16.5 159.5 16.5H11.5" stroke="#FFFF41" stroke-width="5" stroke-linecap="round"/>
<path d="M722 432H536C498.168 432 467.5 401.332 467.5 363.5V363.5C467.5 325.668 436.832 295 399 295H316C274.026 295 240 260.974 240 219V88C240 46.0264 205.974 12 164 12H16" stroke="#008018" stroke-width="5" stroke-linecap="round"/>
<path d="M726.5 427.5H540.5C502.668 427.5 472 396.832 472 359V359C472 321.168 441.332 290.5 403.5 290.5H320.5C278.526 290.5 244.5 256.474 244.5 214.5V83.5C244.5 41.5264 210.474 7.5 168.5 7.5H20.5" stroke="#0000F9" stroke-width="5" stroke-linecap="round"/>
<path d="M731 423H545C507.168 423 476.5 392.332 476.5 354.5V354.5C476.5 316.668 445.832 286 408 286H325C283.026 286 249 251.974 249 210V79C249 37.0264 214.974 3 173 3H25" stroke="#86007D" stroke-width="5" stroke-linecap="round"/>
</svg>
