<svg width="527" height="1766" viewBox="0 0 527 1766" fill="none" xmlns="http://www.w3.org/2000/svg">
<path d="M250.536 3V363C250.536 382.33 266.206 398 285.536 398H304.09C323.42 398 339.09 413.67 339.09 433V1346C339.09 1365.33 323.42 1381 304.09 1381H78C58.67 1381 43 1396.67 43 1416V1504.58C43 1523.91 58.67 1539.58 78 1539.58H121.911C141.241 1539.58 156.911 1555.25 156.911 1574.58V1587.62C156.911 1606.95 172.581 1622.62 191.911 1622.62H195.251C214.581 1622.62 230.251 1638.29 230.251 1657.62V1668C230.251 1687.33 245.921 1703 265.251 1703H524" stroke="#FF0018" stroke-width="5" stroke-linecap="round"/>
<path d="M242.536 15V375C242.536 394.33 258.206 410 277.536 410H296.09C315.42 410 331.09 425.67 331.09 445V1358C331.09 1377.33 315.42 1393 296.09 1393H70C50.67 1393 35 1408.67 35 1428V1516.58C35 1535.91 50.67 1551.58 70 1551.58H113.911C133.241 1551.58 148.911 1567.25 148.911 1586.58V1599.62C148.911 1618.95 164.581 1634.62 183.911 1634.62H187.251C206.581 1634.62 222.251 1650.29 222.251 1669.62V1680C222.251 1699.33 237.921 1715 257.251 1715H516" stroke="#FFA52C" stroke-width="5" stroke-linecap="round"/>
<path d="M234.536 27V387C234.536 406.33 250.206 422 269.536 422H288.09C307.42 422 323.09 437.67 323.09 457V1370C323.09 1389.33 307.42 1405 288.09 1405H62C42.67 1405 27 1420.67 27 1440V1528.58C27 1547.91 42.67 1563.58 62 1563.58H105.911C125.241 1563.58 140.911 1579.25 140.911 1598.58V1611.62C140.911 1630.95 156.581 1646.62 175.911 1646.62H179.251C198.581 1646.62 214.251 1662.29 214.251 1681.62V1692C214.251 1711.33 229.921 1727 249.251 1727H508" stroke="#FFFF41" stroke-width="5" stroke-linecap="round"/>
<path d="M226.536 39V399C226.536 418.33 242.206 434 261.536 434H280.09C299.42 434 315.09 449.67 315.09 469V1382C315.09 1401.33 299.42 1417 280.09 1417H54C34.67 1417 19 1432.67 19 1452V1540.58C19 1559.91 34.67 1575.58 54 1575.58H97.9108C117.241 1575.58 132.911 1591.25 132.911 1610.58V1623.62C132.911 1642.95 148.581 1658.62 167.911 1658.62H171.251C190.581 1658.62 206.251 1674.29 206.251 1693.62V1704C206.251 1723.33 221.921 1739 241.251 1739H500" stroke="#008018" stroke-width="5" stroke-linecap="round"/>
<path d="M218.536 51V411C218.536 430.33 234.206 446 253.536 446H272.09C291.42 446 307.09 461.67 307.09 481V1394C307.09 1413.33 291.42 1429 272.09 1429H46C26.67 1429 11 1444.67 11 1464V1552.58C11 1571.91 26.67 1587.58 46 1587.58H89.9108C109.241 1587.58 124.911 1603.25 124.911 1622.58V1635.62C124.911 1654.95 140.581 1670.62 159.911 1670.62H163.251C182.581 1670.62 198.251 1686.29 198.251 1705.62V1716C198.251 1735.33 213.921 1751 233.251 1751H492" stroke="#0000F9" stroke-width="5" stroke-linecap="round"/>
<path d="M210.536 63V423C210.536 442.33 226.206 458 245.536 458H264.09C283.42 458 299.09 473.67 299.09 493V1406C299.09 1425.33 283.42 1441 264.09 1441H38C18.67 1441 3 1456.67 3 1476V1564.58C3 1583.91 18.67 1599.58 38 1599.58H81.9108C101.241 1599.58 116.911 1615.25 116.911 1634.58V1647.62C116.911 1666.95 132.581 1682.62 151.911 1682.62H155.251C174.581 1682.62 190.251 1698.29 190.251 1717.62V1728C190.251 1747.33 205.921 1763 225.251 1763H484" stroke="#86007D" stroke-width="5" stroke-linecap="round"/>
</svg>
