<svg width="356" height="110" viewBox="0 0 356 110" fill="none" xmlns="http://www.w3.org/2000/svg">
<path d="M3 -12.5V27C3 51.5767 22.9233 71.5 47.5 71.5H74C83.9411 71.5 92 79.5589 92 89.5V89.5C92 99.4411 100.059 107.5 110 107.5H362.5" stroke="#86007D" stroke-width="5" stroke-linecap="round"/>
<path d="M8.5 -20V19.5C8.5 44.0767 28.4233 64 53 64H79.5C89.4411 64 97.5 72.0589 97.5 82V82C97.5 91.9411 105.559 100 115.5 100H368" stroke="#0000F9" stroke-width="5" stroke-linecap="round"/>
<path d="M14 -27.5V12C14 36.5767 33.9233 56.5 58.5 56.5H85C94.9411 56.5 103 64.5589 103 74.5V74.5C103 84.4411 111.059 92.5 121 92.5H373.5" stroke="#008018" stroke-width="5" stroke-linecap="round"/>
<path d="M19.5 -35V4.5C19.5 29.0767 39.4233 49 64 49H90.5C100.441 49 108.5 57.0589 108.5 67V67C108.5 76.9411 116.559 85 126.5 85H379" stroke="#FFFF41" stroke-width="5" stroke-linecap="round"/>
<path d="M25 -42.5V-3C25 21.5767 44.9233 41.5 69.5 41.5H96C105.941 41.5 114 49.5589 114 59.5V59.5C114 69.4411 122.059 77.5 132 77.5H384.5" stroke="#FFA52C" stroke-width="5" stroke-linecap="round"/>
<path d="M30.5 -50V-10.5C30.5 14.0767 50.4233 34 75 34H101.5C111.441 34 119.5 42.0589 119.5 52V52C119.5 61.9411 127.559 70 137.5 70H390" stroke="#FF0018" stroke-width="5" stroke-linecap="round"/>
</svg>
