<svg width="131" height="2153" viewBox="0 0 131 2153" fill="none" xmlns="http://www.w3.org/2000/svg">
<path d="M3 1.5V1095.5C3 1113.17 17.3269 1127.5 35 1127.5H43.5C61.1731 1127.5 75.5 1141.83 75.5 1159.5V2152" stroke="#86007D" stroke-width="5"/>
<path d="M13.5 1.5V1076.5C13.5 1094.17 27.8269 1108.5 45.5 1108.5H54C71.6731 1108.5 86 1122.83 86 1140.5V2152" stroke="#0000F9" stroke-width="5"/>
<path d="M24 0.5V1057.5C24 1075.17 38.3269 1089.5 56 1089.5H64.5C82.1731 1089.5 96.5 1103.83 96.5 1121.5V2150" stroke="#008018" stroke-width="5"/>
<path d="M34.5 2.5V1038.5C34.5 1056.17 48.8269 1070.5 66.5 1070.5H75C92.6731 1070.5 107 1084.83 107 1102.5V2152" stroke="#FFFF41" stroke-width="5"/>
<path d="M45 2V1019.5C45 1037.17 59.3269 1051.5 77 1051.5H85.5C103.173 1051.5 117.5 1065.83 117.5 1083.5V2153" stroke="#FFA52C" stroke-width="5"/>
<path d="M55.5 0V1000.5C55.5 1018.17 69.8269 1032.5 87.5 1032.5H96C113.673 1032.5 128 1046.83 128 1064.5V2152.5" stroke="#FF0018" stroke-width="5"/>
</svg>
