<svg width="350" height="144" viewBox="0 0 350 144" fill="none" xmlns="http://www.w3.org/2000/svg">
<path d="M3 116L3 79C3 37.0264 37.0264 3.00002 79 3.00002L362.67 3.00003" stroke="#86007D" stroke-width="5" stroke-linecap="round"/>
<path d="M8.26611 121L8.26611 84C8.26611 42.0264 42.2925 8.00002 84.2661 8.00002L367.936 8.00003" stroke="#0000F9" stroke-width="5" stroke-linecap="round"/>
<path d="M13.532 126L13.532 89C13.532 47.0264 47.5583 13 89.532 13L373.202 13" stroke="#008018" stroke-width="5" stroke-linecap="round"/>
<path d="M18.7981 131L18.7981 94C18.7981 52.0264 52.8245 18 94.7981 18L378.468 18" stroke="#FFFF41" stroke-width="5" stroke-linecap="round"/>
<path d="M24.0642 136L24.0642 99C24.0642 57.0264 58.0906 23 100.064 23L383.734 23" stroke="#FFA52C" stroke-width="5" stroke-linecap="round"/>
<path d="M29.3301 141L29.3301 104C29.3301 62.0264 63.3564 28 105.33 28L389 28" stroke="#FF0018" stroke-width="5" stroke-linecap="round"/>
</svg>
