<svg width="373" height="1145" viewBox="0 0 373 1145" fill="none" xmlns="http://www.w3.org/2000/svg">
<path d="M-19.5 3.00043L273.607 3.00011C315.581 3.00006 349.607 37.0263 349.607 79L349.607 155.008C349.607 196.981 315.581 231.008 273.607 231.008L238.5 231.008C196.527 231.008 162.5 265.034 162.5 307.008L162.5 514.914L162.5 1105.77" stroke="#86007D" stroke-width="5" stroke-linecap="round"/>
<path d="M-19.5 10.8455L277.786 10.8455C319.76 10.8455 353.786 44.8718 353.786 86.8454L353.786 162.853C353.786 204.827 319.76 238.853 277.786 238.853L242.679 238.853C200.705 238.853 166.679 272.88 166.679 314.853L166.679 522.759L166.679 1113.62" stroke="#0000F9" stroke-width="5" stroke-linecap="round"/>
<path d="M-19.5 18.6908L281.964 18.6908C323.938 18.6908 357.964 52.7172 357.964 94.6908L357.965 170.698C357.965 212.672 323.938 246.698 281.965 246.698L246.858 246.698C204.884 246.698 170.858 280.725 170.858 322.698L170.858 530.605L170.858 1121.46" stroke="#008018" stroke-width="5" stroke-linecap="round"/>
<path d="M-20.5 26.5362L286.143 26.5363C328.117 26.5363 362.143 60.5626 362.143 102.536L362.143 178.544C362.143 220.517 328.117 254.544 286.143 254.544L251.036 254.544C209.062 254.544 175.036 288.57 175.036 330.544L175.036 538.451L175.036 1129.31" stroke="#FFFF41" stroke-width="5" stroke-linecap="round"/>
<path d="M-21 34.3818L290.322 34.3818C332.295 34.3818 366.322 68.4082 366.322 110.382L366.322 186.389C366.322 228.363 332.295 262.389 290.322 262.389L255.215 262.389C213.241 262.389 179.215 296.416 179.215 338.389L179.215 546.296L179.215 1137.15" stroke="#FFA52C" stroke-width="5" stroke-linecap="round"/>
<path d="M-19.5 42.2269L294.5 42.227C336.474 42.2271 370.5 76.2534 370.5 118.227L370.5 194.234C370.5 236.208 336.474 270.235 294.5 270.235L259.393 270.235C217.42 270.235 183.393 304.261 183.393 346.235L183.393 554.141L183.393 1145" stroke="#FF0018" stroke-width="5" stroke-linecap="round"/>
</svg>
