<svg width="210" height="188" viewBox="0 0 210 188" fill="none" xmlns="http://www.w3.org/2000/svg">
<path d="M207 5.5C208.381 5.5 209.5 4.38071 209.5 3C209.5 1.61929 208.381 0.5 207 0.5V5.5ZM207 0.5H76.25V5.5H207V0.5ZM41.75 35H31V40H41.75V35ZM0.5 65.5V78H5.5V65.5H0.5ZM43.5 121H88.25V116H43.5V121ZM154.75 187.5H197V182.5H154.75V187.5ZM119 151.75C119 171.494 135.006 187.5 154.75 187.5V182.5C137.767 182.5 124 168.733 124 151.75H119ZM88.25 121C105.233 121 119 134.767 119 151.75H124C124 132.006 107.994 116 88.25 116V121ZM0.5 78C0.5 101.748 19.7518 121 43.5 121V116C22.5132 116 5.5 98.9868 5.5 78H0.5ZM31 35C14.1553 35 0.5 48.6553 0.5 65.5H5.5C5.5 51.4167 16.9167 40 31 40V35ZM56.5 20.25C56.5 28.3962 49.8962 35 41.75 35V40C52.6576 40 61.5 31.1576 61.5 20.25H56.5ZM76.25 0.5C65.3424 0.5 56.5 9.34238 56.5 20.25H61.5C61.5 12.1038 68.1038 5.5 76.25 5.5V0.5Z" stroke="#FFA52C"/>
</svg>
